<svg xmlns="http://www.w3.org/2000/svg" width="1398" height="390" viewBox="0 0 1398 390" font-family="Segoe UI, -apple-system, BlinkMacSystemFont, Helvetica, Arial, sans-serif">
<defs><filter id="cs" x="-20%" y="-20%" width="140%" height="140%"><feDropShadow dx="0" dy="1" stdDeviation="1.3" flood-color="#000" flood-opacity="0.1"/></filter></defs>
<rect width="1398" height="390" fill="#ffffff"/>
<rect x="0" y="78.0" width="1398" height="114.0" fill="#ffffff"/>
<line x1="0" y1="78.0" x2="1398" y2="78.0" stroke="#e6e4e2"/>
<text x="1254.0" y="139.5" font-size="13" font-weight="700" fill="#323130">Tenant</text>
<rect x="0" y="192.0" width="1398" height="90.0" fill="#faf9f8"/>
<line x1="0" y1="192.0" x2="1398" y2="192.0" stroke="#e6e4e2"/>
<text x="1254.0" y="241.5" font-size="13" font-weight="700" fill="#323130">Domains</text>
<rect x="0" y="282.0" width="1398" height="90.0" fill="#ffffff"/>
<line x1="0" y1="282.0" x2="1398" y2="282.0" stroke="#e6e4e2"/>
<text x="1254.0" y="323.0" font-size="13" font-weight="700" fill="#323130">Referenced health</text>
<text x="1254.0" y="340.0" font-size="13" font-weight="700" fill="#323130">models</text>
<line x1="0" y1="389.5" x2="1398" y2="389.5" stroke="#e6e4e2"/>
<text x="40" y="34" font-size="18" font-weight="700" fill="#242424">Health models at tenant scale</text>
<text x="40" y="52" font-size="12" fill="#605e5c">A tenant model splits into domains, each domain references its own health model</text>
<text x="995.1" y="48" font-size="11.5" font-weight="600" fill="#605e5c" text-anchor="end">Legend</text>
<circle cx="1013.1" cy="44" r="4.5" fill="#4c9a2a"/>
<text x="1023.1" y="48" font-size="11.5" fill="#323130">Healthy</text>
<circle cx="1078.9" cy="44" r="4.5" fill="#c26a00"/>
<text x="1088.9" y="48" font-size="11.5" fill="#323130">Degraded</text>
<circle cx="1156.4" cy="44" r="4.5" fill="#c50f18"/>
<text x="1166.4" y="48" font-size="11.5" fill="#323130">Unhealthy</text>
<circle cx="1235.2" cy="44" r="4.5" fill="#8a8886"/>
<text x="1245.2" y="48" font-size="11.5" fill="#323130">Unknown</text>
<g transform="translate(1304.1,37.0) scale(0.875)"><rect x="1.5" y="8" width="2.6" height="6" rx="0.6" fill="#8661c5"/><rect x="5.7" y="4.5" width="2.6" height="9.5" rx="0.6" fill="#0078D4"/><rect x="9.9" y="6.5" width="2.6" height="7.5" rx="0.6" fill="#3fb0ac"/></g>
<text x="1322.1" y="48" font-size="11.5" fill="#323130">Metric</text>
<g transform="translate(40.0,0)">
<g fill="none" stroke-linecap="butt" stroke-linejoin="round">
<path d="M267.6 300.0 L267.6 268.0" stroke="#db7500" stroke-width="1.7"/>
<path d="M482.6 300.0 L482.6 268.0" stroke="#a0d8a0" stroke-width="1.7"/>
<path d="M680.6 300.0 L680.6 268.0" stroke="#a0d8a0" stroke-width="1.7"/>
<path d="M912.1 300.0 L912.1 268.0" stroke="#a0d8a0" stroke-width="1.7"/>
<path d="M554.6 210.0 L554.6 154.0" stroke="#a0d8a0" stroke-width="1.7"/>
<path d="M608.6 210.0 L608.6 154.0" stroke="#a0d8a0" stroke-width="1.7"/>
<path d="M912.1 210.0 L912.1 181.0 Q912.1 174.0 905.1 174.0 L684.2 174.0 Q677.2 174.0 677.2 167.0 L677.2 154.0" stroke="#a0d8a0" stroke-width="1.7"/>
<path d="M267.6 210.0 L267.6 181.0 Q267.6 174.0 274.6 174.0 L491.2 174.0 Q498.2 174.0 498.2 167.0 L498.2 154.0" stroke="#db7500" stroke-width="1.7"/>
</g>
<g filter="url(#cs)"><rect x="0.0" y="300.0" width="291" height="58" rx="10" fill="#fbf2e7" stroke="#db7500" stroke-width="2"/></g><g transform="translate(6.0,319.16) scale(0.82)"><path d="M12 3.2l7.6 4.4v8.8L12 20.8l-7.6-4.4V7.6z" fill="none" stroke="#605e5c" stroke-width="1.6" stroke-linecap="round" stroke-linejoin="round"/><path d="M4.6 7.8l7.4 4.3 7.4-4.3M12 12.1v8.6" fill="none" stroke="#605e5c" stroke-width="1.6" stroke-linecap="round" stroke-linejoin="round"/></g><text x="34.0" y="332.5" font-size="12.5" font-weight="600" fill="#242424">Connectivity-Contoso-Prod</text><rect x="208.0" y="320.00" width="75.0" height="18" rx="9" fill="#ffffff" stroke="#db7500" stroke-width="1"/><circle cx="219.0" cy="329.0" r="6" fill="#c26a00"/><text x="228.0" y="332.57" font-size="10.5" fill="#323130">Degraded</text>
<g filter="url(#cs)"><rect x="166.6" y="210.0" width="202" height="58" rx="10" fill="#fbf2e7" stroke="#db7500" stroke-width="2"/></g><g transform="translate(172.6,229.16) scale(0.82)"><path d="M12 3.2l7.6 4.4v8.8L12 20.8l-7.6-4.4V7.6z" fill="none" stroke="#605e5c" stroke-width="1.6" stroke-linecap="round" stroke-linejoin="round"/><path d="M4.6 7.8l7.4 4.3 7.4-4.3M12 12.1v8.6" fill="none" stroke="#605e5c" stroke-width="1.6" stroke-linecap="round" stroke-linejoin="round"/></g><text x="200.6" y="242.5" font-size="12.5" font-weight="600" fill="#242424">Connectivity</text><rect x="285.6" y="230.00" width="75.0" height="18" rx="9" fill="#ffffff" stroke="#db7500" stroke-width="1"/><circle cx="296.6" cy="239.0" r="6" fill="#c26a00"/><text x="305.6" y="242.57" font-size="10.5" fill="#323130">Degraded</text>
<g filter="url(#cs)"><rect x="321.0" y="300.0" width="249" height="58" rx="10" fill="#f2f8f2" stroke="#a0d8a0" stroke-width="2"/></g><g transform="translate(327.0,319.16) scale(0.82)"><path d="M12 3l7 2.6v5.2c0 4.6-3 7.9-7 9.2-4-1.3-7-4.6-7-9.2V5.6z" fill="none" stroke="#605e5c" stroke-width="1.6" stroke-linecap="round" stroke-linejoin="round"/><path d="M8.8 12.2l2.2 2.2 4-4.6" fill="none" stroke="#605e5c" stroke-width="1.6" stroke-linecap="round" stroke-linejoin="round"/></g><text x="355.0" y="332.5" font-size="12.5" font-weight="600" fill="#242424">Identity-Contoso-Prod</text><rect x="497.7" y="320.00" width="64.3" height="18" rx="9" fill="#ffffff" stroke="#a0d8a0" stroke-width="1"/><circle cx="508.7" cy="329.0" r="6" fill="#4c9a2a"/><path d="M506.0 329.0 l1.9 1.9 l3.4 -3.9" fill="none" stroke="#ffffff" stroke-width="1.4" stroke-linecap="round" stroke-linejoin="round"/><text x="517.7" y="332.57" font-size="10.5" fill="#323130">Healthy</text>
<g filter="url(#cs)"><rect x="398.6" y="210.0" width="168" height="58" rx="10" fill="#f2f8f2" stroke="#a0d8a0" stroke-width="2"/></g><g transform="translate(404.6,229.16) scale(0.82)"><path d="M12 3l7 2.6v5.2c0 4.6-3 7.9-7 9.2-4-1.3-7-4.6-7-9.2V5.6z" fill="none" stroke="#605e5c" stroke-width="1.6" stroke-linecap="round" stroke-linejoin="round"/><path d="M8.8 12.2l2.2 2.2 4-4.6" fill="none" stroke="#605e5c" stroke-width="1.6" stroke-linecap="round" stroke-linejoin="round"/></g><text x="432.6" y="242.5" font-size="12.5" font-weight="600" fill="#242424">Identity</text><rect x="494.3" y="230.00" width="64.3" height="18" rx="9" fill="#ffffff" stroke="#a0d8a0" stroke-width="1"/><circle cx="505.3" cy="239.0" r="6" fill="#4c9a2a"/><path d="M502.6 239.0 l1.9 1.9 l3.4 -3.9" fill="none" stroke="#ffffff" stroke-width="1.4" stroke-linecap="round" stroke-linejoin="round"/><text x="514.3" y="242.57" font-size="10.5" fill="#323130">Healthy</text>
<g filter="url(#cs)"><rect x="600.0" y="300.0" width="254" height="58" rx="10" fill="#f2f8f2" stroke="#a0d8a0" stroke-width="2"/></g><g transform="translate(606.0,319.16) scale(0.82)"><path d="M12 3l7 2.6v5.2c0 4.6-3 7.9-7 9.2-4-1.3-7-4.6-7-9.2V5.6z" fill="none" stroke="#605e5c" stroke-width="1.6" stroke-linecap="round" stroke-linejoin="round"/><path d="M8.8 12.2l2.2 2.2 4-4.6" fill="none" stroke="#605e5c" stroke-width="1.6" stroke-linecap="round" stroke-linejoin="round"/></g><text x="634.0" y="332.5" font-size="12.5" font-weight="600" fill="#242424">Security-Contoso-Prod</text><rect x="781.7" y="320.00" width="64.3" height="18" rx="9" fill="#ffffff" stroke="#a0d8a0" stroke-width="1"/><circle cx="792.7" cy="329.0" r="6" fill="#4c9a2a"/><path d="M790.0 329.0 l1.9 1.9 l3.4 -3.9" fill="none" stroke="#ffffff" stroke-width="1.4" stroke-linecap="round" stroke-linejoin="round"/><text x="801.7" y="332.57" font-size="10.5" fill="#323130">Healthy</text>
<g filter="url(#cs)"><rect x="596.6" y="210.0" width="168" height="58" rx="10" fill="#f2f8f2" stroke="#a0d8a0" stroke-width="2"/></g><g transform="translate(602.6,229.16) scale(0.82)"><path d="M12 3l7 2.6v5.2c0 4.6-3 7.9-7 9.2-4-1.3-7-4.6-7-9.2V5.6z" fill="none" stroke="#605e5c" stroke-width="1.6" stroke-linecap="round" stroke-linejoin="round"/><path d="M8.8 12.2l2.2 2.2 4-4.6" fill="none" stroke="#605e5c" stroke-width="1.6" stroke-linecap="round" stroke-linejoin="round"/></g><text x="630.6" y="242.5" font-size="12.5" font-weight="600" fill="#242424">Security</text><rect x="692.3" y="230.00" width="64.3" height="18" rx="9" fill="#ffffff" stroke="#a0d8a0" stroke-width="1"/><circle cx="703.3" cy="239.0" r="6" fill="#4c9a2a"/><path d="M700.6 239.0 l1.9 1.9 l3.4 -3.9" fill="none" stroke="#ffffff" stroke-width="1.4" stroke-linecap="round" stroke-linejoin="round"/><text x="712.3" y="242.57" font-size="10.5" fill="#323130">Healthy</text>
<g filter="url(#cs)"><rect x="884.0" y="300.0" width="282" height="58" rx="10" fill="#f2f8f2" stroke="#a0d8a0" stroke-width="2"/></g><g transform="translate(890.0,319.16) scale(0.82)"><path d="M12 3.2l7.6 4.4v8.8L12 20.8l-7.6-4.4V7.6z" fill="none" stroke="#605e5c" stroke-width="1.6" stroke-linecap="round" stroke-linejoin="round"/><path d="M4.6 7.8l7.4 4.3 7.4-4.3M12 12.1v8.6" fill="none" stroke="#605e5c" stroke-width="1.6" stroke-linecap="round" stroke-linejoin="round"/></g><text x="918.0" y="332.5" font-size="12.5" font-weight="600" fill="#242424">Management-Contoso-Prod</text><rect x="1093.7" y="320.00" width="64.3" height="18" rx="9" fill="#ffffff" stroke="#a0d8a0" stroke-width="1"/><circle cx="1104.7" cy="329.0" r="6" fill="#4c9a2a"/><path d="M1102.0 329.0 l1.9 1.9 l3.4 -3.9" fill="none" stroke="#ffffff" stroke-width="1.4" stroke-linecap="round" stroke-linejoin="round"/><text x="1113.7" y="332.57" font-size="10.5" fill="#323130">Healthy</text>
<g filter="url(#cs)"><rect x="794.6" y="210.0" width="235" height="58" rx="10" fill="#f2f8f2" stroke="#a0d8a0" stroke-width="2"/></g><g transform="translate(800.6,229.16) scale(0.82)"><path d="M12 3.2l7.6 4.4v8.8L12 20.8l-7.6-4.4V7.6z" fill="none" stroke="#605e5c" stroke-width="1.6" stroke-linecap="round" stroke-linejoin="round"/><path d="M4.6 7.8l7.4 4.3 7.4-4.3M12 12.1v8.6" fill="none" stroke="#605e5c" stroke-width="1.6" stroke-linecap="round" stroke-linejoin="round"/></g><text x="828.6" y="242.5" font-size="12.5" font-weight="600" fill="#242424">Your other domains</text><rect x="957.3" y="230.00" width="64.3" height="18" rx="9" fill="#ffffff" stroke="#a0d8a0" stroke-width="1"/><circle cx="968.3" cy="239.0" r="6" fill="#4c9a2a"/><path d="M965.6 239.0 l1.9 1.9 l3.4 -3.9" fill="none" stroke="#ffffff" stroke-width="1.4" stroke-linecap="round" stroke-linejoin="round"/><text x="977.3" y="242.57" font-size="10.5" fill="#323130">Healthy</text>
<g filter="url(#cs)"><rect x="480.2" y="96.0" width="211" height="58" rx="10" fill="#fbf2e7" stroke="#db7500" stroke-width="2"/></g><g transform="translate(486.2,115.16) scale(0.82)"><path d="M12 3.2l7.6 4.4v8.8L12 20.8l-7.6-4.4V7.6z" fill="none" stroke="#605e5c" stroke-width="1.6" stroke-linecap="round" stroke-linejoin="round"/><path d="M4.6 7.8l7.4 4.3 7.4-4.3M12 12.1v8.6" fill="none" stroke="#605e5c" stroke-width="1.6" stroke-linecap="round" stroke-linejoin="round"/></g><text x="514.2" y="123.0" font-size="12.5" font-weight="600" fill="#242424">Contoso-Prod</text><text x="514.2" y="135.0" font-size="9" fill="#605e5c">objective 99.5%</text><rect x="608.2" y="116.00" width="75.0" height="18" rx="9" fill="#ffffff" stroke="#db7500" stroke-width="1"/><circle cx="619.2" cy="125.0" r="6" fill="#c26a00"/><text x="628.2" y="128.57" font-size="10.5" fill="#323130">Degraded</text>
</g></svg>